<?xml version="1.0"?>
<svg xmlns="http://www.w3.org/2000/svg" id="Filled" viewBox="0 0 512 512" width="512" height="512"><path d="M488,160c0-22.856-17.311-41.967-40.487-46.805C443.673,85.479,416.712,64,384,64c-32.284,0-58.971,20.92-63.355,48.11C293.491,113.708,272,134.532,272,160c0,14.761,7.224,27.959,18.579,36.764A63.988,63.988,0,0,0,384,281.943a63.982,63.982,0,0,0,90.3-89.486A45.868,45.868,0,0,0,488,160Z" style="fill:#b1bd70"/><polygon points="424 200 400 224 400 376 368 376 368 224 344 200 360 176 384 192 408 176 424 200" style="fill:#6a9c72"/><path d="M456,472S432,232,248,232,40,472,40,472Z" style="fill:#ffb632"/><path d="M456,472s-8-32-48-32-48,32-48,32S320,360,248,336c-72,24-112,136-112,136s-8-32-48-32-48,32-48,32" style="fill:#d1ad8f"/><path d="M328,408c0-120-80-176-80-176s-80,56-80,176Z" style="fill:#d1ad8f"/><path d="M248,360a8,8,0,0,1-8-8V232a8,8,0,0,1,16,0V352A8,8,0,0,1,248,360Z" style="fill:#b3947b"/><path d="M136,112a31.863,31.863,0,0,0,17-4.88,56,56,0,1,1,0-54.24A32,32,0,1,0,136,112Z" style="fill:#ffd33a"/><path d="M327.98,408.17,320,472H176l-7.98-63.83c18.9-29.63,45.84-60.79,79.98-72.17C282.14,347.38,309.08,378.54,327.98,408.17Z" style="fill:#b37a60"/><path d="M488,480H24a8,8,0,0,1,0-16H488a8,8,0,0,1,0,16Z" style="fill:#b3947b"/><path d="M424,304a72.081,72.081,0,0,0,72-72,71.159,71.159,0,0,0-11.5-39.026,53.089,53.089,0,0,0-2.041-68.407,60.672,60.672,0,0,0-28.034-17.858C447.487,77.447,418.226,56,384,56a77.5,77.5,0,0,0-47.008,15.51,63.278,63.278,0,0,0-22.929,33.268C285.542,109.222,264,132.457,264,160a53.88,53.88,0,0,0,16.321,38.394,71.614,71.614,0,0,0-8.022,27.021A205.649,205.649,0,0,0,248,224c-43.832,0-82.564,13.207-115.123,39.253C107.055,283.911,85.158,312.6,67.8,348.519,44.069,397.613,35.481,446.059,32.944,464H24a8,8,0,0,0,0,16H488a8,8,0,0,0,0-16H463.056c-2.537-17.941-11.125-66.387-34.853-115.481A294,294,0,0,0,408,313.03V302.2A71.952,71.952,0,0,0,424,304ZM295.481,190.442C285.643,182.813,280,171.717,280,160c0-21.019,18.06-38.547,41.114-39.9a8,8,0,0,0,7.429-6.713C332.347,89.791,356.187,72,384,72c28.351,0,52.248,18.182,55.589,42.293a8,8,0,0,0,6.289,6.733C465.969,125.22,480,141.247,480,160a37.945,37.945,0,0,1-11.368,26.814,8,8,0,0,0-.615,10.591A55.414,55.414,0,0,1,480,232a56.033,56.033,0,0,1-72,53.677V227.313l21.657-21.656a8,8,0,0,0,1-10.095l-16-24a8,8,0,0,0-11.094-2.218L384,182.385l-19.563-13.041a8,8,0,0,0-11.093,2.218l-16,24a8,8,0,0,0,1,10.095L360,227.313v33.5a175.075,175.075,0,0,0-71.856-32.827,55.684,55.684,0,0,1,9.109-26.807A8,8,0,0,0,295.481,190.442Zm78.176,27.9L354.294,198.98l7.925-11.886,17.343,11.562a8,8,0,0,0,8.875,0l17.344-11.562,7.925,11.886-19.363,19.363A8,8,0,0,0,392,224v67.658a214.056,214.056,0,0,0-16-17.1V224A8,8,0,0,0,373.657,218.343ZM240,249.419v80.994c-22.112,8.773-43.048,25.694-62.525,50.491,5.033-45.651,22.052-79.372,36.708-100.776A199.827,199.827,0,0,1,240,249.419Zm-76.991,183.16L166.937,464H147.824C151.092,456.318,156.193,445.138,163.009,432.579Zm13.32-22.445C193.881,383.14,218.087,355.5,248,344.477c29.913,11.023,54.12,38.664,71.672,65.658L312.938,464H183.062ZM332.991,432.58c6.816,12.559,11.917,23.739,15.185,31.42H329.063ZM256,330.413V249.419a199.827,199.827,0,0,1,25.817,30.709c14.656,21.4,31.675,55.125,36.708,100.776C299.048,356.107,278.112,339.186,256,330.413ZM82.2,355.481c16.314-33.752,36.726-60.579,60.67-79.734a160.687,160.687,0,0,1,82.516-34.41,218.173,218.173,0,0,0-23.975,29.121c-18.68,27.087-40.893,72.472-41.391,135.4-.615.982-1.231,1.963-1.843,2.962a375.55,375.55,0,0,0-23.148,44.353q-.942-1.214-2.011-2.44C125.543,442.187,111.663,432,88,432c-14.8,0-26.208,4.076-34.77,9.8C58.044,419.275,66.828,387.29,82.2,355.481ZM123.176,464H52.83c5.333-7.333,15.741-16,35.17-16S117.848,456.677,123.176,464Zm249.672,0c5.338-7.319,15.749-16,35.152-16,19.429,0,29.837,8.667,35.17,16Zm69.892-22.288C434.692,436.33,423.426,432,408,432c-23.518,0-38.483,10.291-47.048,21.138a375.368,375.368,0,0,0-23.132-44.319c-.612-1-1.228-1.98-1.843-2.962-.5-62.927-22.711-108.312-41.391-135.4a218.156,218.156,0,0,0-23.975-29.12,160.683,160.683,0,0,1,82.346,34.273c23.929,19.093,44.338,45.841,60.661,79.5C429.059,386.952,437.9,419.082,442.74,441.712Z"/><path d="M104,144a64.057,64.057,0,0,0,56-33,8,8,0,0,0-11.252-10.654,24,24,0,1,1,0-40.69A8,8,0,0,0,160,49a64,64,0,1,0-56,95Zm0-112a47.984,47.984,0,0,1,26.988,8.312,40,40,0,0,0,0,79.376A48,48,0,1,1,104,32Z"/><path d="M232,56a8,8,0,0,0,8-8V40a8,8,0,0,0-16,0v8A8,8,0,0,0,232,56Z"/><path d="M208,72h8a8,8,0,0,0,0-16h-8a8,8,0,0,0,0,16Z"/><path d="M248,72h8a8,8,0,0,0,0-16h-8a8,8,0,0,0,0,16Z"/><path d="M232,72a8,8,0,0,0-8,8v8a8,8,0,0,0,16,0V80A8,8,0,0,0,232,72Z"/><path d="M48,192a8,8,0,0,0,8-8v-8a8,8,0,0,0-16,0v8A8,8,0,0,0,48,192Z"/><path d="M24,208h8a8,8,0,0,0,0-16H24a8,8,0,0,0,0,16Z"/><path d="M64,192a8,8,0,0,0,0,16h8a8,8,0,0,0,0-16Z"/><path d="M48,208a8,8,0,0,0-8,8v8a8,8,0,0,0,16,0v-8A8,8,0,0,0,48,208Z"/></svg>
