<svg xmlns="http://www.w3.org/2000/svg" id="Layer_5" width="512" height="512" enable-background="new 0 0 64 64" viewBox="0 0 64 64"><g><g><g><path fill="#b27946" d="m54 54c4.42 0 8 3.58 8 8h-30c3.31 0 6-2.69 6-6 0-.7-.12-1.37-.34-2h6.34z"/></g><g><path fill="#b27946" d="m32 62h-14c0-4.42-3.58-8-8-8h10 6.34c-.22.63-.34 1.3-.34 2 0 3.31 2.69 6 6 6z"/></g><g><path fill="#d3a06c" d="m37.66 54c.22.63.34 1.3.34 2 0 3.31-2.69 6-6 6s-6-2.69-6-6c0-.7.12-1.37.34-2 .4-1.12 1.12-2.09 2.05-2.78 1-.77 2.25-1.22 3.61-1.22 1.35 0 2.6.45 3.61 1.22.93.69 1.65 1.66 2.05 2.78z"/></g><g><circle cx="32" cy="56" r="2" fill="#b27946"/></g><g><path fill="#b27946" d="m14 62h-8c0-2.21 1.79-4 4-4s4 1.79 4 4z"/></g><g><path fill="#d3a06c" d="m10 54c-4.42 0-8 3.58-8 8h16c0-4.42-3.58-8-8-8z"/></g><g><path fill="#ef7385" d="m48 49c0 3-4 5-4 5h-6.34c-.4-1.12-1.12-2.09-2.05-2.78l.01-.01.38-.21s4-2 4-5c0-5 3-5 3-5 0 4 5 5 5 8z"/></g><g><path fill="#ef7385" d="m32 43v1c-1.1 0-2 2.9-2 4s.9 2 2 2c-1.36 0-2.61.45-3.61 1.22l-.01-.01-.38-.21s-4-2-4-5 5-4 5-8c0 0 3 0 3 5z"/></g><g><path fill="#ef7385" d="m36 51-.38.21-.01.01c-1.01-.77-2.26-1.22-3.61-1.22 1.1 0 2-.9 2-2s-.9-4-2-4v-1c0-5 3-5 3-5 0 4 5 5 5 8s-4 5-4 5z"/></g><g><path fill="#ef7385" d="m28 51 .38.21.01.01c-.93.69-1.65 1.66-2.05 2.78h-6.34s-4-2-4-5 5-4 5-8c0 0 3 0 3 5 0 3 4 5 4 5z"/></g><g><path fill="#ed5565" d="m34 48c0 1.1-.9 2-2 2s-2-.9-2-2 .9-4 2-4 2 2.9 2 4z"/></g><g><path fill="#fcd770" d="m60 9v8c0 1.66-2.69 3-6 3s-6-1.34-6-3v-8c0 1.66 2.69 3 6 3s6-1.34 6-3z"/></g><g><path fill="#fcd770" d="m16 9v8c0 1.66-2.69 3-6 3s-6-1.34-6-3v-8c0 1.66 2.69 3 6 3s6-1.34 6-3z"/></g><g><ellipse cx="54" cy="9" fill="#ffeaa7" rx="6" ry="3"/></g><g><ellipse cx="10" cy="9" fill="#ffeaa7" rx="6" ry="3"/></g><g><path fill="#dfb28b" d="m49 20h5 5c1.66 0 3 1.79 3 4s-1.34 4-3 4h-5-5c1.66 0 3-1.79 3-4s-1.34-4-3-4z"/></g><g><path fill="#dfb28b" d="m5 20h5 5c1.66 0 3 1.79 3 4s-1.34 4-3 4h-5-5c1.66 0 3-1.79 3-4s-1.34-4-3-4z"/></g><g><ellipse cx="49" cy="24" fill="#ecc19c" rx="3" ry="4"/></g><g><ellipse cx="5" cy="24" fill="#ecc19c" rx="3" ry="4"/></g></g><g><path d="m32 53c-1.654 0-3 1.346-3 3s1.346 3 3 3 3-1.346 3-3-1.346-3-3-3zm0 4c-.552 0-1-.448-1-1s.448-1 1-1 1 .448 1 1-.448 1-1 1z"/><path d="m55 53.059v-24.059h4c2.206 0 4-2.243 4-5 0-2.345-1.303-4.305-3.049-4.842.665-.615 1.049-1.35 1.049-2.158v-8c0-2.085-2.519-3.697-6-3.958v-4.042h-2v4.042c-3.481.261-6 1.873-6 3.958v8c0 .808.384 1.543 1.049 2.158-1.746.537-3.049 2.497-3.049 4.842 0 2.757 1.794 5 4 5h4v24h-5.944c1.017-.997 1.944-2.353 1.944-4 0-1.84-1.304-3.004-2.565-4.13-1.252-1.118-2.435-2.174-2.435-3.87v-1h-1c-.031 0-2.433.055-3.497 2.874-.339-.347-.704-.678-1.068-1.004-1.252-1.118-2.435-2.174-2.435-3.87v-1h-1c-.027 0-1.824.039-3 1.864-1.176-1.825-2.973-1.864-3-1.864h-1v1c0 1.696-1.183 2.752-2.435 3.87-.365.325-.729.656-1.068 1.004-1.064-2.819-3.466-2.874-3.497-2.874h-1v1c0 1.696-1.183 2.752-2.435 3.87-1.261 1.126-2.565 2.29-2.565 4.13 0 1.647.927 3.003 1.944 4h-5.944v-24h4c2.206 0 4-2.243 4-5 0-2.345-1.303-4.305-3.049-4.842.665-.615 1.049-1.35 1.049-2.158v-8c0-2.085-2.519-3.697-6-3.958v-4.042h-2v4.042c-3.481.261-6 1.873-6 3.958v8c0 .808.384 1.543 1.049 2.158-1.746.537-3.049 2.497-3.049 4.842 0 2.757 1.794 5 4 5h4v24.059c-4.493.499-8 4.316-8 8.941v1h62v-1c0-4.625-3.507-8.442-8-8.941zm4-32.059c1.084 0 2 1.374 2 3s-.916 3-2 3h-6.82c.508-.838.82-1.87.82-3s-.313-2.162-.82-3zm-10-4v-5.147c1.251.716 3.003 1.147 5 1.147s3.749-.431 5-1.147v5.147c0 .815-1.948 2-5 2s-5-1.185-5-2zm4-9.952v1.952h2v-1.952c2.468.222 4 1.23 4 1.952 0 .815-1.948 2-5 2s-5-1.185-5-2c0-.722 1.532-1.73 4-1.952zm-6 16.952c0-1.626.916-3 2-3s2 1.374 2 3-.916 3-2 3-2-1.374-2-3zm-32-3c1.084 0 2 1.374 2 3s-.916 3-2 3h-6.82c.507-.838.82-1.87.82-3s-.313-2.162-.82-3zm-10-4v-5.147c1.251.716 3.003 1.147 5 1.147s3.749-.431 5-1.147v5.147c0 .815-1.948 2-5 2s-5-1.185-5-2zm4-9.952v1.952h2v-1.952c2.468.222 4 1.23 4 1.952 0 .815-1.948 2-5 2s-5-1.185-5-2c0-.722 1.532-1.73 4-1.952zm-6 16.952c0-1.626.916-3 2-3s2 1.374 2 3-.916 3-2 3-2-1.374-2-3zm39.169 18.356c.467 1.803 1.812 3.003 2.934 4.005 1.018.91 1.897 1.695 1.897 2.639 0 1.818-2.183 3.408-3.249 4h-5.436c-.275-.577-.625-1.11-1.04-1.587 1.314-.845 3.725-2.754 3.725-5.413 0-2.213.618-3.202 1.169-3.644zm-10.169 18.644c-2.757 0-5-2.243-5-5s2.243-5 5-5 5 2.243 5 5-2.243 5-5 5zm-1-13c0-.826.571-2.436 1-2.915.429.479 1 2.089 1 2.915 0 .552-.448 1-1 1s-1-.448-1-1zm3.169-8.644c.467 1.803 1.812 3.003 2.934 4.005 1.018.91 1.897 1.695 1.897 2.639 0 1.852-2.263 3.465-3.336 4.047-.343-.212-.703-.396-1.081-.547.258-.443.417-.951.417-1.5 0-.956-.632-3.708-2-4.665v-.335c0-2.213.618-3.202 1.169-3.644zm-7.272 4.005c1.121-1.001 2.466-2.201 2.933-4.002.555.444 1.17 1.433 1.17 3.641v.335c-1.368.956-2 3.709-2 4.665 0 .549.159 1.057.417 1.5-.378.151-.737.335-1.079.546-.571-.316-3.338-1.956-3.338-4.046 0-.944.879-1.729 1.897-2.639zm-9.897 5.639c0-.944.879-1.729 1.897-2.639 1.121-1.001 2.466-2.201 2.933-4.002.555.444 1.17 1.433 1.17 3.641 0 2.668 2.429 4.583 3.724 5.414-.415.477-.764 1.01-1.039 1.586h-5.429c-.717-.41-3.256-2-3.256-4zm-9.816 12c.414-1.161 1.514-2 2.816-2s2.402.839 2.816 2zm7.715 0c-.465-2.279-2.484-4-4.899-4s-4.434 1.721-4.899 4h-2.03c.486-3.388 3.408-6 6.929-6s6.442 2.612 6.929 6zm4.045 0c-.269-2.42-1.506-4.546-3.307-6h9.442c-.046.328-.079.66-.079 1 0 1.958.81 3.728 2.111 5zm17.945 0c1.301-1.272 2.111-3.042 2.111-5 0-.34-.033-.672-.08-1h15.08c3.521 0 6.442 2.612 6.929 6z"/><path d="m23.565 28.87c-1.261 1.126-2.565 2.29-2.565 4.13 0 3.577 4.367 5.802 4.553 5.895l.895-1.789c-.035-.018-3.448-1.789-3.448-4.106 0-.944.879-1.729 1.897-2.639 1.121-1.001 2.466-2.201 2.933-4.002.555.443 1.17 1.433 1.17 3.641h2c0-4.94-2.74-5.811-3.682-5.965-.614-.343-3.318-1.97-3.318-4.035 0-.944.879-1.729 1.897-2.639 1.121-1.001 2.466-2.201 2.933-4.002.555.443 1.17 1.433 1.17 3.641h2c0-5.931-3.96-6-4-6h-1v1c0 1.696-1.183 2.752-2.435 3.87-1.261 1.126-2.565 2.29-2.565 4.13 0 2.823 2.713 4.798 3.951 5.553-.225 1.382-1.276 2.326-2.386 3.317z"/><path d="m35.169 9.356c.467 1.803 1.812 3.004 2.934 4.005 1.018.91 1.897 1.695 1.897 2.639 0 1.859-2.277 3.475-3.314 4.035-.937.151-3.686 1.017-3.686 5.965h2c0-2.213.618-3.202 1.169-3.644.467 1.803 1.812 3.004 2.934 4.005 1.018.91 1.897 1.695 1.897 2.639 0 1.942-2.489 3.623-3.449 4.106l.896 1.788c.186-.092 4.553-2.317 4.553-5.894 0-1.84-1.304-3.004-2.565-4.13-1.109-.99-2.16-1.935-2.386-3.316 1.238-.756 3.951-2.731 3.951-5.554 0-1.84-1.304-3.004-2.565-4.13-1.252-1.118-2.435-2.174-2.435-3.87v-1h-1c-.04 0-4 .069-4 6h2c0-2.213.618-3.202 1.169-3.644z"/></g></g></svg>